{"title":"Euro.Angels.Hardball.19.Reverse.Gang.Bang.DVDRip.x264.Iou1","uid":9449314,"size":1778410215,"categoryP":"porn","categoryS":"movies","magnet":"?xt=urn:btih:153dcbffe07fb7faf766e08e4b6a811650c59811&amp;dn=Euro.Angels.Hardball.19.Reverse.Gang.Bang.DVDRip.x264.Iou1&amp;tr=udp%3A%2F%2Ftracker.openbittorrent.com%3A80&amp;tr=udp%3A%2F%2Fopen.demonii.com%3A1337&amp;tr=udp%3A%2F%2Ftracker.coppersurfer.tk%3A6969&amp;tr=udp%3A%2F%2Fexodus.desync.com%3A6969","seeders":0,"leechers":6,"uploader":"jaybee211","files":-1,"time":1389144439,"description":"Genre                                    : XXX\nFormat                                   : MPEG-4\nFormat profile                           : Base Media / Version 2\nCodec ID                                 : mp42\nFile size                                : 1.66 GiB\nDuration                                 : 2h 46mn\nOverall bit rate mode                    : Variable\nOverall bit rate                         : 1 427 Kbps\n\nVideo\nID                                       : 1\nFormat                                   : AVC\nFormat/Info                              : Advanced Video Codec\nFormat profile                           : &lt;a class=&quot;__cf_email__&quot; href=&quot;/cdn-cgi/l/email-protection&quot; data-cfemail=&quot;2c64454b446c601f021d&quot;&gt;[email&amp;#160;protected]&lt;/a&gt;&lt;script cf-hash='f9e31' type=&quot;text/javascript&quot;&gt;\n/* &lt;![CDATA[ */!function(){try{var t=&quot;currentScript&quot;in document?document.currentScript:function(){for(var t=document.getElementsByTagName(&quot;script&quot;),e=t.length;e--;)if(t[e].getAttribute(&quot;cf-hash&quot;))return t[e]}();if(t&amp;&amp;t.previousSibling){var e,r,n,i,c=t.previousSibling,a=c.getAttribute(&quot;data-cfemail&quot;);if(a){for(e=&quot;&quot;,r=parseInt(a.substr(0,2),16),n=2;a.length-n;n+=2)i=parseInt(a.substr(n,2),16)^r,e+=String.fromCharCode(i);e=document.createTextNode(e),c.parentNode.replaceChild(e,c)}}}catch(u){}}();/* ]]&gt; */&lt;/script&gt;\nFormat settings, CABAC                   : Yes\nFormat settings, ReFrames                : 4 frames\nCodec ID                                 : avc1\nCodec ID/Info                            : Advanced Video Coding\nDuration                                 : 2h 46mn\nBit rate mode                            : Variable\nBit rate                                 : 1 360 Kbps\nMaximum bit rate                         : 3 477 Kbps\nWidth                                    : 720 pixels\nHeight                                   : 540 pixels\nDisplay aspect ratio                     : 4:3\nFrame rate mode                          : Constant\nFrame rate                               : 29.970 fps\nStandard                                 : NTSC\nColor space                              : YUV\nChroma subsampling                       : 4:2:0\nBit depth                                : 8 bits\nScan type                                : Progressive\nBits/(Pixel*Frame)                       : 0.117\nStream size                              : 1.58 GiB (95%)\n\nAudio\nID                                       : 2\nFormat                                   : AAC\nFormat/Info                              : Advanced Audio Codec\nFormat profile                           : LC\nCodec ID                                 : 40\nDuration                                 : 2h 46mn\nBit rate mode                            : Variable\nBit rate                                 : 62.0 Kbps\nMaximum bit rate                         : 70.2 Kbps\nChannel(s)                               : 2 channels\nChannel positions                        : Front: L R\nSampling rate                            : 48.0 KHz\nCompression mode                         : Lossy\nStream size                              : 73.6 MiB (4%)\nLanguage                                 : English\n\nScreens. &lt;a href=&quot; http://bayimg.com/bagfLAafE&quot; rel=&quot;nofollow&quot; target=&quot;_NEW&quot;&gt; http://bayimg.com/bagfLAafE&lt;/a&gt;\n\nCovers. &lt;a href=&quot; http://bayimg.com/BAgFPAAfE&quot; rel=&quot;nofollow&quot; target=&quot;_NEW&quot;&gt; http://bayimg.com/BAgFPAAfE&lt;/a&gt;\n\n        &lt;a href=&quot; http://bayimg.com/cAgFBAafE&quot; rel=&quot;nofollow&quot; target=&quot;_NEW&quot;&gt; http://bayimg.com/cAgFBAafE&lt;/a&gt;\n\nEnjoy.","torrent":{"xt":"urn:btih:153dcbffe07fb7faf766e08e4b6a811650c59811","amp;dn":"Euro.Angels.Hardball.19.Reverse.Gang.Bang.DVDRip.x264.Iou1","amp;tr":["udp%3A%2F%2Ftracker.openbittorrent.com%3A80","udp%3A%2F%2Fopen.demonii.com%3A1337","udp%3A%2F%2Ftracker.coppersurfer.tk%3A6969","udp%3A%2F%2Fexodus.desync.com%3A6969"],"infoHash":"153dcbffe07fb7faf766e08e4b6a811650c59811","infoHashBuffer":{"type":"Buffer","data":[21,61,203,255,224,127,183,250,247,102,224,142,75,106,129,22,80,197,152,17]},"announce":[],"urlList":[]}}